<mxfile host="app.diagrams.net" agent="Mozilla/5.0 (Windows NT 10.0; Win64; x64) AppleWebKit/537.36 (KHTML, like Gecko) Chrome/141.0.0.0 Safari/537.36" version="28.2.8" pages="3">
  <diagram name="Page-1" id="xyqPfJWC64ONOGS_23KW">
    <mxGraphModel dx="509" dy="714" grid="1" gridSize="10" guides="1" tooltips="1" connect="1" arrows="1" fold="1" page="1" pageScale="1" pageWidth="850" pageHeight="1100" math="0" shadow="0">
      <root>
        <mxCell id="0" />
        <mxCell id="1" parent="0" />
        <mxCell id="OWi_dBA2INh2iEfSHeoG-4" style="edgeStyle=none;curved=1;rounded=0;orthogonalLoop=1;jettySize=auto;html=1;entryX=0;entryY=0.5;entryDx=0;entryDy=0;fontSize=12;startSize=8;endSize=8;labelBackgroundColor=none;strokeColor=#736CA8;fontColor=default;" parent="1" source="OWi_dBA2INh2iEfSHeoG-1" target="OWi_dBA2INh2iEfSHeoG-2" edge="1">
          <mxGeometry relative="1" as="geometry" />
        </mxCell>
        <mxCell id="OWi_dBA2INh2iEfSHeoG-5" value="ON Command" style="edgeLabel;html=1;align=center;verticalAlign=middle;resizable=0;points=[];fontSize=12;labelBackgroundColor=none;fontColor=#1A1A1A;" parent="OWi_dBA2INh2iEfSHeoG-4" vertex="1" connectable="0">
          <mxGeometry x="0.2267" y="-1" relative="1" as="geometry">
            <mxPoint x="-14" y="-11" as="offset" />
          </mxGeometry>
        </mxCell>
        <mxCell id="OWi_dBA2INh2iEfSHeoG-1" value="OFF" style="ellipse;whiteSpace=wrap;html=1;labelBackgroundColor=none;fillColor=#5D7F99;strokeColor=#D0CEE2;fontColor=#1A1A1A;" parent="1" vertex="1">
          <mxGeometry x="160" y="180" width="120" height="80" as="geometry" />
        </mxCell>
        <mxCell id="OWi_dBA2INh2iEfSHeoG-8" style="edgeStyle=none;curved=1;rounded=0;orthogonalLoop=1;jettySize=auto;html=1;fontSize=12;startSize=8;endSize=8;labelBackgroundColor=none;strokeColor=#736CA8;fontColor=default;" parent="1" source="OWi_dBA2INh2iEfSHeoG-2" target="OWi_dBA2INh2iEfSHeoG-3" edge="1">
          <mxGeometry relative="1" as="geometry" />
        </mxCell>
        <mxCell id="OWi_dBA2INh2iEfSHeoG-9" value="EXIT/ QUIT" style="edgeLabel;html=1;align=center;verticalAlign=middle;resizable=0;points=[];fontSize=12;labelBackgroundColor=none;fontColor=#1A1A1A;" parent="OWi_dBA2INh2iEfSHeoG-8" vertex="1" connectable="0">
          <mxGeometry x="-0.0471" y="-1" relative="1" as="geometry">
            <mxPoint as="offset" />
          </mxGeometry>
        </mxCell>
        <mxCell id="OWi_dBA2INh2iEfSHeoG-2" value="ON" style="ellipse;whiteSpace=wrap;html=1;labelBackgroundColor=none;fillColor=#5D7F99;strokeColor=#D0CEE2;fontColor=#1A1A1A;" parent="1" vertex="1">
          <mxGeometry x="400" y="180" width="120" height="80" as="geometry" />
        </mxCell>
        <mxCell id="OWi_dBA2INh2iEfSHeoG-3" value="EXIT" style="ellipse;whiteSpace=wrap;html=1;labelBackgroundColor=none;fillColor=#5D7F99;strokeColor=#D0CEE2;fontColor=#1A1A1A;" parent="1" vertex="1">
          <mxGeometry x="280" y="330" width="120" height="80" as="geometry" />
        </mxCell>
        <mxCell id="OWi_dBA2INh2iEfSHeoG-6" style="edgeStyle=none;curved=1;rounded=0;orthogonalLoop=1;jettySize=auto;html=1;entryX=0.985;entryY=0.693;entryDx=0;entryDy=0;entryPerimeter=0;fontSize=12;startSize=8;endSize=8;labelBackgroundColor=none;strokeColor=#736CA8;fontColor=default;" parent="1" source="OWi_dBA2INh2iEfSHeoG-2" target="OWi_dBA2INh2iEfSHeoG-1" edge="1">
          <mxGeometry relative="1" as="geometry" />
        </mxCell>
        <mxCell id="OWi_dBA2INh2iEfSHeoG-7" value="OFF Command" style="edgeLabel;html=1;align=center;verticalAlign=middle;resizable=0;points=[];fontSize=12;labelBackgroundColor=none;fontColor=#1A1A1A;" parent="OWi_dBA2INh2iEfSHeoG-6" vertex="1" connectable="0">
          <mxGeometry x="0.1138" y="3" relative="1" as="geometry">
            <mxPoint x="7" y="6" as="offset" />
          </mxGeometry>
        </mxCell>
        <mxCell id="OWi_dBA2INh2iEfSHeoG-10" style="edgeStyle=none;curved=1;rounded=0;orthogonalLoop=1;jettySize=auto;html=1;entryX=0.092;entryY=0.198;entryDx=0;entryDy=0;entryPerimeter=0;fontSize=12;startSize=8;endSize=8;labelBackgroundColor=none;strokeColor=#736CA8;fontColor=default;" parent="1" source="OWi_dBA2INh2iEfSHeoG-1" target="OWi_dBA2INh2iEfSHeoG-3" edge="1">
          <mxGeometry relative="1" as="geometry" />
        </mxCell>
        <mxCell id="OWi_dBA2INh2iEfSHeoG-11" value="EXIT/ QUIT" style="edgeLabel;html=1;align=center;verticalAlign=middle;resizable=0;points=[];fontSize=12;labelBackgroundColor=none;fontColor=#1A1A1A;" parent="OWi_dBA2INh2iEfSHeoG-10" vertex="1" connectable="0">
          <mxGeometry x="-0.0231" y="-6" relative="1" as="geometry">
            <mxPoint y="-1" as="offset" />
          </mxGeometry>
        </mxCell>
        <mxCell id="OWi_dBA2INh2iEfSHeoG-12" value="State Machine: Serial Light Control System&lt;div&gt;&lt;br&gt;&lt;/div&gt;&lt;div&gt;Commands:&lt;/div&gt;&lt;div&gt;- ON &amp;gt; Turns LED on&lt;/div&gt;&lt;div&gt;- OFF &amp;gt; Turns LED off&lt;/div&gt;&lt;div&gt;- EXIT/QUIT &amp;gt; Terminates program&lt;/div&gt;" style="text;strokeColor=none;fillColor=none;html=1;align=center;verticalAlign=middle;whiteSpace=wrap;rounded=0;fontSize=16;labelBackgroundColor=none;fontColor=#1A1A1A;" parent="1" vertex="1">
          <mxGeometry x="410" y="380" width="260" height="70" as="geometry" />
        </mxCell>
      </root>
    </mxGraphModel>
  </diagram>
  <diagram id="7QyNH_bVK5i-ciZoaFHA" name="MIlestone3_StateMachine">
    <mxGraphModel dx="1095" dy="873" grid="0" gridSize="10" guides="1" tooltips="1" connect="1" arrows="1" fold="1" page="0" pageScale="1" pageWidth="850" pageHeight="1100" math="0" shadow="0">
      <root>
        <mxCell id="0" />
        <mxCell id="1" parent="0" />
        <mxCell id="dRvXHF7cUJWClt-JnWGh-38" value="" style="edgeStyle=none;curved=1;rounded=0;orthogonalLoop=1;jettySize=auto;html=1;fontSize=12;startSize=8;endSize=8;" edge="1" parent="1">
          <mxGeometry relative="1" as="geometry">
            <mxPoint x="337" y="-205" as="sourcePoint" />
            <mxPoint x="337" y="-133" as="targetPoint" />
          </mxGeometry>
        </mxCell>
        <mxCell id="dRvXHF7cUJWClt-JnWGh-4" value="&lt;pre&gt;OFF&lt;br&gt;(All LEDs OFF)&lt;/pre&gt;" style="rounded=1;whiteSpace=wrap;html=1;fillColor=#647687;fontColor=#ffffff;strokeColor=#314354;" vertex="1" parent="1">
          <mxGeometry x="299" y="-265" width="120" height="60" as="geometry" />
        </mxCell>
        <mxCell id="dRvXHF7cUJWClt-JnWGh-31" style="edgeStyle=none;curved=1;rounded=0;orthogonalLoop=1;jettySize=auto;html=1;entryX=0.5;entryY=0;entryDx=0;entryDy=0;fontSize=12;startSize=8;endSize=8;" edge="1" parent="1">
          <mxGeometry relative="1" as="geometry">
            <mxPoint x="198" y="-322" as="sourcePoint" />
            <mxPoint x="198" y="-265" as="targetPoint" />
          </mxGeometry>
        </mxCell>
        <mxCell id="dRvXHF7cUJWClt-JnWGh-5" value="&lt;pre&gt;DOT&lt;/pre&gt;" style="rounded=1;whiteSpace=wrap;html=1;fillColor=#e51400;fontColor=#ffffff;strokeColor=#B20000;" vertex="1" parent="1">
          <mxGeometry x="116" y="-382" width="120" height="60" as="geometry" />
        </mxCell>
        <mxCell id="dRvXHF7cUJWClt-JnWGh-37" value="" style="edgeStyle=none;curved=1;rounded=0;orthogonalLoop=1;jettySize=auto;html=1;fontSize=12;startSize=8;endSize=8;" edge="1" parent="1">
          <mxGeometry relative="1" as="geometry">
            <mxPoint x="378" y="-133" as="sourcePoint" />
            <mxPoint x="378" y="-205" as="targetPoint" />
          </mxGeometry>
        </mxCell>
        <mxCell id="dRvXHF7cUJWClt-JnWGh-39" value="" style="edgeStyle=none;curved=1;rounded=0;orthogonalLoop=1;jettySize=auto;html=1;fontSize=12;startSize=8;endSize=8;" edge="1" parent="1" source="dRvXHF7cUJWClt-JnWGh-6" target="dRvXHF7cUJWClt-JnWGh-13">
          <mxGeometry relative="1" as="geometry" />
        </mxCell>
        <mxCell id="dRvXHF7cUJWClt-JnWGh-6" value="&lt;pre&gt;DASH&lt;br&gt;(Blue LED on 1.5s)&lt;/pre&gt;" style="rounded=1;whiteSpace=wrap;html=1;fillColor=#1ba1e2;fontColor=#ffffff;strokeColor=#006EAF;" vertex="1" parent="1">
          <mxGeometry x="305" y="-129" width="120" height="60" as="geometry" />
        </mxCell>
        <mxCell id="dRvXHF7cUJWClt-JnWGh-32" value="" style="edgeStyle=none;curved=1;rounded=0;orthogonalLoop=1;jettySize=auto;html=1;fontSize=12;startSize=8;endSize=8;" edge="1" parent="1">
          <mxGeometry relative="1" as="geometry">
            <mxPoint x="151" y="-265" as="sourcePoint" />
            <mxPoint x="151" y="-322" as="targetPoint" />
          </mxGeometry>
        </mxCell>
        <mxCell id="dRvXHF7cUJWClt-JnWGh-33" value="" style="edgeStyle=none;curved=1;rounded=0;orthogonalLoop=1;jettySize=auto;html=1;fontSize=12;startSize=8;endSize=8;" edge="1" parent="1" source="dRvXHF7cUJWClt-JnWGh-7" target="dRvXHF7cUJWClt-JnWGh-4">
          <mxGeometry relative="1" as="geometry" />
        </mxCell>
        <mxCell id="dRvXHF7cUJWClt-JnWGh-7" value="&lt;pre&gt;Button Pressed&lt;br&gt;(Message Change)&lt;/pre&gt;" style="rounded=1;whiteSpace=wrap;html=1;fillColor=#60a917;fontColor=#ffffff;strokeColor=#2D7600;" vertex="1" parent="1">
          <mxGeometry x="116" y="-265" width="120" height="60" as="geometry" />
        </mxCell>
        <mxCell id="dRvXHF7cUJWClt-JnWGh-13" value="&lt;pre&gt;LCD Display&lt;/pre&gt;&lt;pre&gt;Feedback&lt;/pre&gt;" style="rounded=1;whiteSpace=wrap;html=1;fillColor=#e3c800;fontColor=#000000;strokeColor=#B09500;" vertex="1" parent="1">
          <mxGeometry x="305" y="-12" width="120" height="60" as="geometry" />
        </mxCell>
        <mxCell id="dRvXHF7cUJWClt-JnWGh-30" value="&lt;pre&gt;&lt;font style=&quot;font-size: 10px;&quot; face=&quot;Courier New&quot;&gt;MORSE TIMING CONSTANTS&lt;br&gt;Dot: 0.5s&lt;br&gt;Dash: 1.5s&lt;br&gt;Between symbols: 0.25s&lt;br&gt;Between letters: 0.75s&lt;br&gt;Between words: 3.0s&lt;/font&gt;&lt;/pre&gt;&lt;div&gt;&lt;br&gt;&lt;/div&gt;" style="rounded=0;whiteSpace=wrap;html=1;" vertex="1" parent="1">
          <mxGeometry x="-19" y="-120" width="288" height="116" as="geometry" />
        </mxCell>
        <mxCell id="dRvXHF7cUJWClt-JnWGh-40" value="&lt;pre&gt;blink_dot()&lt;br&gt;SYMBOL_PAUSE&lt;/pre&gt;" style="text;strokeColor=none;fillColor=none;html=1;align=center;verticalAlign=middle;whiteSpace=wrap;rounded=0;fontSize=16;" vertex="1" parent="1">
          <mxGeometry x="230" y="-315" width="60" height="30" as="geometry" />
        </mxCell>
        <mxCell id="dRvXHF7cUJWClt-JnWGh-41" value="&lt;pre&gt;blink_dash()&lt;br&gt;SYMBOL_PAUSE&lt;/pre&gt;" style="text;strokeColor=none;fillColor=none;html=1;align=center;verticalAlign=middle;whiteSpace=wrap;rounded=0;fontSize=16;" vertex="1" parent="1">
          <mxGeometry x="419" y="-186" width="60" height="30" as="geometry" />
        </mxCell>
      </root>
    </mxGraphModel>
  </diagram>
  <diagram id="kytBU483JPZbyNSO7FNw" name="Page-3">
    <mxGraphModel dx="1842" dy="1075" grid="0" gridSize="10" guides="1" tooltips="1" connect="1" arrows="1" fold="1" page="0" pageScale="1" pageWidth="850" pageHeight="1100" math="0" shadow="0">
      <root>
        <mxCell id="0" />
        <mxCell id="1" parent="0" />
        <mxCell id="ZU-TWiXWIW7QxYhxzfTs-5" value="&lt;pre&gt;SysTec Smart Thermostat - I/O &amp;amp; State Machine Architecture&lt;br&gt;Kristie Jackson | Course: CS 350 | Date: October 2025&lt;/pre&gt;" style="rounded=0;whiteSpace=wrap;html=1;strokeColor=default;dashed=1;dashPattern=8 8;" vertex="1" parent="1">
          <mxGeometry x="-479" y="-28" width="437" height="60" as="geometry" />
        </mxCell>
        <mxCell id="ZU-TWiXWIW7QxYhxzfTs-24" style="edgeStyle=none;curved=1;rounded=0;orthogonalLoop=1;jettySize=auto;html=1;fontSize=12;startSize=8;endSize=8;" edge="1" parent="1">
          <mxGeometry relative="1" as="geometry">
            <mxPoint x="-190" y="118" as="targetPoint" />
            <mxPoint x="-250" y="117.5" as="sourcePoint" />
          </mxGeometry>
        </mxCell>
        <mxCell id="ZU-TWiXWIW7QxYhxzfTs-25" style="edgeStyle=none;curved=1;rounded=0;orthogonalLoop=1;jettySize=auto;html=1;fontSize=12;startSize=8;endSize=8;" edge="1" parent="1">
          <mxGeometry relative="1" as="geometry">
            <mxPoint x="-193" y="224" as="targetPoint" />
            <mxPoint x="-253" y="224" as="sourcePoint" />
          </mxGeometry>
        </mxCell>
        <mxCell id="ZU-TWiXWIW7QxYhxzfTs-12" value="" style="rounded=1;whiteSpace=wrap;html=1;" vertex="1" parent="1">
          <mxGeometry x="-562" y="49" width="309" height="236" as="geometry" />
        </mxCell>
        <mxCell id="ZU-TWiXWIW7QxYhxzfTs-13" value="&lt;pre&gt;Color Codes:&lt;/pre&gt;&lt;pre&gt;🟢 I²C Bus  &lt;br/&gt;🔴 Heat Output (GPIO17)  &lt;br/&gt;🔵 Cool Output (GPIO27)  &lt;br/&gt;🟡 Buttons (GPIO22, GPIO25, GPIO12)  &lt;br/&gt;🟣 UART Serial Link  &lt;pre&gt;&lt;br&gt;Pin Summary:&lt;br&gt;GPIO2/3 → I²C SDA/SCL&lt;br&gt;GPIO17 → Red LED&lt;br&gt;GPIO27 → Blue LED&lt;br&gt;GPIO22 → Mode Button&lt;br&gt;GPIO25 → Temp+ Button&lt;br&gt;GPIO12 → Temp– Button&lt;br&gt;GPIO14/15 → UART TX/RX&lt;/pre&gt;&lt;pre&gt;&lt;br&gt;Modes:&lt;br&gt;OFF → LEDs off&lt;br&gt;HEAT → Red LED logic active&lt;br&gt;COOL → Blue LED logic active&lt;/pre&gt;&lt;/pre&gt;&lt;div&gt;&lt;br&gt;&lt;/div&gt;" style="rounded=1;whiteSpace=wrap;html=1;align=left;fillColor=#bac8d3;strokeColor=#23445d;convertToSvg=1;" vertex="1" parent="1">
          <mxGeometry x="-37" y="19" width="260" height="430" as="geometry" />
        </mxCell>
        <mxCell id="ZU-TWiXWIW7QxYhxzfTs-17" style="edgeStyle=none;curved=1;rounded=0;orthogonalLoop=1;jettySize=auto;html=1;entryX=0.447;entryY=0.003;entryDx=0;entryDy=0;fontSize=12;startSize=8;endSize=8;entryPerimeter=0;" edge="1" parent="1">
          <mxGeometry relative="1" as="geometry">
            <mxPoint x="-536.9737231237423" y="374.816308096242" as="sourcePoint" />
            <mxPoint x="-615.3599999999999" y="440.24" as="targetPoint" />
            <Array as="points">
              <mxPoint x="-629" y="373" />
            </Array>
          </mxGeometry>
        </mxCell>
        <mxCell id="ZU-TWiXWIW7QxYhxzfTs-14" value="&lt;pre&gt;&lt;font style=&quot;font-size: 20px;&quot;&gt;OFF&lt;/font&gt;&lt;/pre&gt;" style="ellipse;whiteSpace=wrap;html=1;fillColor=#d0cee2;strokeColor=#56517e;" vertex="1" parent="1">
          <mxGeometry x="-534" y="337" width="120" height="80" as="geometry" />
        </mxCell>
        <mxCell id="ZU-TWiXWIW7QxYhxzfTs-19" style="edgeStyle=none;curved=1;rounded=0;orthogonalLoop=1;jettySize=auto;html=1;fontSize=12;startSize=8;endSize=8;" edge="1" parent="1">
          <mxGeometry relative="1" as="geometry">
            <mxPoint x="-388.0000244140625" y="489" as="targetPoint" />
            <mxPoint x="-545.6" y="489" as="sourcePoint" />
          </mxGeometry>
        </mxCell>
        <mxCell id="ZU-TWiXWIW7QxYhxzfTs-15" value="&lt;pre&gt;&lt;font style=&quot;font-size: 20px;&quot;&gt;HEAT&lt;/font&gt;&lt;/pre&gt;" style="ellipse;whiteSpace=wrap;html=1;fillColor=#e51400;fontColor=#ffffff;strokeColor=#B20000;" vertex="1" parent="1">
          <mxGeometry x="-666" y="441" width="120" height="80" as="geometry" />
        </mxCell>
        <mxCell id="ZU-TWiXWIW7QxYhxzfTs-16" value="&lt;pre&gt;&lt;font style=&quot;font-size: 20px;&quot;&gt;COOL&lt;/font&gt;&lt;/pre&gt;" style="ellipse;whiteSpace=wrap;html=1;fillColor=#b1ddf0;strokeColor=#10739e;" vertex="1" parent="1">
          <mxGeometry x="-388" y="441" width="120" height="80" as="geometry" />
        </mxCell>
        <mxCell id="ZU-TWiXWIW7QxYhxzfTs-20" value="&lt;div style=&quot;line-height: 20%;&quot;&gt;&lt;pre&gt;&lt;br&gt;&lt;pre&gt;&lt;font style=&quot;font-size: 10px; line-height: 20%;&quot;&gt;I²C Bus &lt;/font&gt;&lt;/pre&gt;&lt;/pre&gt;&lt;pre&gt;&lt;font style=&quot;font-size: 10px; line-height: 20%;&quot;&gt;(SDA: GPIO2,&lt;/font&gt;&lt;/pre&gt;&lt;pre&gt;&lt;font style=&quot;font-size: 10px; line-height: 20%;&quot;&gt; SCL: GPIO3)&lt;/font&gt;&lt;/pre&gt;&lt;/div&gt;" style="rounded=1;whiteSpace=wrap;html=1;fillColor=#6d8764;fontColor=#ffffff;strokeColor=#3A5431;" vertex="1" parent="1">
          <mxGeometry x="-540" y="66" width="108" height="70" as="geometry" />
        </mxCell>
        <mxCell id="ZU-TWiXWIW7QxYhxzfTs-21" value="&lt;br&gt;&lt;pre style=&quot;line-height: 20%;&quot;&gt;GPIO Outputs &lt;/pre&gt;&lt;pre style=&quot;line-height: 20%;&quot;&gt;(LEDs)&lt;/pre&gt;" style="rounded=1;whiteSpace=wrap;html=1;fillColor=#e51400;fontColor=#ffffff;strokeColor=#B20000;" vertex="1" parent="1">
          <mxGeometry x="-540" y="171" width="107" height="72" as="geometry" />
        </mxCell>
        <mxCell id="ZU-TWiXWIW7QxYhxzfTs-22" value="&lt;pre style=&quot;line-height: 20%;&quot;&gt;&lt;font style=&quot;font-size: 10px; color: light-dark(rgb(0, 0, 0), rgb(0, 0, 0));&quot;&gt;GPIO Inputs &lt;/font&gt;&lt;/pre&gt;&lt;pre style=&quot;line-height: 20%;&quot;&gt;&lt;font style=&quot;font-size: 10px; color: light-dark(rgb(0, 0, 0), rgb(0, 0, 0));&quot;&gt;(Buttons)&lt;/font&gt;&lt;/pre&gt;" style="rounded=1;whiteSpace=wrap;html=1;fillColor=light-dark(#E3C800,#FFFF99);fontColor=#000000;strokeColor=#B09500;" vertex="1" parent="1">
          <mxGeometry x="-398" y="88" width="120" height="60" as="geometry" />
        </mxCell>
        <mxCell id="ZU-TWiXWIW7QxYhxzfTs-33" style="edgeStyle=none;curved=1;rounded=0;orthogonalLoop=1;jettySize=auto;html=1;entryX=0;entryY=0;entryDx=0;entryDy=0;fontSize=12;startSize=8;endSize=8;exitX=0.999;exitY=0.37;exitDx=0;exitDy=0;exitPerimeter=0;" edge="1" parent="1" source="ZU-TWiXWIW7QxYhxzfTs-12" target="ZU-TWiXWIW7QxYhxzfTs-28">
          <mxGeometry relative="1" as="geometry" />
        </mxCell>
        <mxCell id="ZU-TWiXWIW7QxYhxzfTs-23" value="&lt;div style=&quot;line-height: 0%;&quot;&gt;&lt;pre&gt;&lt;font style=&quot;font-size: 10px; color: light-dark(rgb(0, 0, 0), rgb(0, 0, 0));&quot;&gt;UART &lt;/font&gt;&lt;/pre&gt;&lt;pre&gt;&lt;font style=&quot;font-size: 10px; color: light-dark(rgb(0, 0, 0), rgb(0, 0, 0));&quot;&gt;(TX: GPIO14, RX: GPIO15)&lt;/font&gt;&lt;/pre&gt;&lt;/div&gt;" style="rounded=1;whiteSpace=wrap;html=1;fillColor=#76608a;fontColor=#ffffff;strokeColor=#432D57;" vertex="1" parent="1">
          <mxGeometry x="-418" y="175" width="140" height="60" as="geometry" />
        </mxCell>
        <mxCell id="ZU-TWiXWIW7QxYhxzfTs-27" value="&lt;pre&gt;&lt;font style=&quot;font-size: 10px;&quot;&gt;AHT20 Temp Sensor&lt;/font&gt;&lt;/pre&gt;" style="text;strokeColor=none;fillColor=none;html=1;align=center;verticalAlign=middle;whiteSpace=wrap;rounded=0;fontSize=16;" vertex="1" parent="1">
          <mxGeometry x="-146" y="100" width="60" height="30" as="geometry" />
        </mxCell>
        <mxCell id="ZU-TWiXWIW7QxYhxzfTs-28" value="&lt;pre&gt;&lt;font style=&quot;font-size: 10px;&quot;&gt;LCD Display&lt;/font&gt;&lt;/pre&gt;" style="text;strokeColor=none;fillColor=none;html=1;align=center;verticalAlign=middle;whiteSpace=wrap;rounded=0;fontSize=16;" vertex="1" parent="1">
          <mxGeometry x="-109" y="136" width="60" height="30" as="geometry" />
        </mxCell>
        <mxCell id="ZU-TWiXWIW7QxYhxzfTs-30" value="&lt;div style=&quot;line-height: 0%;&quot;&gt;&lt;pre&gt;Mode &lt;/pre&gt;&lt;pre&gt;Button&lt;/pre&gt;&lt;/div&gt;" style="text;strokeColor=none;fillColor=none;html=1;align=center;verticalAlign=middle;whiteSpace=wrap;rounded=0;fontSize=16;" vertex="1" parent="1">
          <mxGeometry x="-328" y="387" width="60" height="30" as="geometry" />
        </mxCell>
        <mxCell id="ZU-TWiXWIW7QxYhxzfTs-34" value="&lt;pre style=&quot;line-height: 0%;&quot;&gt;&lt;font style=&quot;font-size: 10px;&quot;&gt;Server/Serial Output&lt;/font&gt;&lt;/pre&gt;" style="text;strokeColor=none;fillColor=none;html=1;align=center;verticalAlign=middle;whiteSpace=wrap;rounded=0;fontSize=16;" vertex="1" parent="1">
          <mxGeometry x="-161" y="205" width="60" height="30" as="geometry" />
        </mxCell>
        <mxCell id="ZU-TWiXWIW7QxYhxzfTs-35" style="edgeStyle=none;curved=1;rounded=0;orthogonalLoop=1;jettySize=auto;html=1;entryX=0.5;entryY=0;entryDx=0;entryDy=0;fontSize=12;startSize=8;endSize=8;" edge="1" parent="1" target="ZU-TWiXWIW7QxYhxzfTs-16">
          <mxGeometry relative="1" as="geometry">
            <mxPoint x="-414" y="382" as="sourcePoint" />
            <mxPoint x="-404" y="449" as="targetPoint" />
            <Array as="points">
              <mxPoint x="-418" y="382" />
              <mxPoint x="-335" y="382" />
            </Array>
          </mxGeometry>
        </mxCell>
        <mxCell id="ZU-TWiXWIW7QxYhxzfTs-36" value="&lt;div style=&quot;line-height: 0%;&quot;&gt;&lt;pre&gt;Mode &lt;/pre&gt;&lt;pre&gt;Button&lt;/pre&gt;&lt;/div&gt;" style="text;strokeColor=none;fillColor=none;html=1;align=center;verticalAlign=middle;whiteSpace=wrap;rounded=0;fontSize=16;" vertex="1" parent="1">
          <mxGeometry x="-486.6" y="454" width="60" height="30" as="geometry" />
        </mxCell>
        <mxCell id="ZU-TWiXWIW7QxYhxzfTs-37" value="&lt;div style=&quot;line-height: 0%;&quot;&gt;&lt;pre&gt;Mode &lt;/pre&gt;&lt;pre&gt;Button&lt;/pre&gt;&lt;/div&gt;" style="text;strokeColor=none;fillColor=none;html=1;align=center;verticalAlign=middle;whiteSpace=wrap;rounded=0;fontSize=16;" vertex="1" parent="1">
          <mxGeometry x="-690" y="403" width="60" height="30" as="geometry" />
        </mxCell>
        <mxCell id="ZU-TWiXWIW7QxYhxzfTs-40" value="Text" style="text;strokeColor=none;fillColor=none;html=1;align=center;verticalAlign=middle;whiteSpace=wrap;rounded=0;fontSize=16;" vertex="1" parent="1">
          <mxGeometry x="-702" y="546" width="60" height="30" as="geometry" />
        </mxCell>
        <mxCell id="ZU-TWiXWIW7QxYhxzfTs-42" value="&lt;pre&gt;If Temp &amp;lt; SetPoint → Red LED fades&lt;br&gt;If Temp ≥ SetPoint → Red LED solid&lt;/pre&gt;&lt;div&gt;&lt;div&gt;&lt;br&gt;&lt;/div&gt;&lt;/div&gt;" style="rounded=1;whiteSpace=wrap;html=1;strokeColor=none;" vertex="1" parent="1">
          <mxGeometry x="-720" y="550" width="120" height="60" as="geometry" />
        </mxCell>
        <mxCell id="ZU-TWiXWIW7QxYhxzfTs-43" value="&lt;pre&gt;If Temp &amp;gt; SetPoint → Blue LED fades&lt;br&gt;If Temp ≤ SetPoint → Blue LED solid&lt;/pre&gt;" style="rounded=0;whiteSpace=wrap;html=1;strokeColor=none;" vertex="1" parent="1">
          <mxGeometry x="-388" y="542" width="234" height="60" as="geometry" />
        </mxCell>
      </root>
    </mxGraphModel>
  </diagram>
</mxfile>
